Coordinates
version=1
nRows=9
nColumns=63
inDegrees=yes

Units are S.I. units (second, meters, Newtons, ...)
If the header above contains a line with 'inDegrees', this indicates whether rotational values are in degrees (yes) or radians (no).

endheader
time	pelvis_tilt	pelvis_list	pelvis_rotation	pelvis_tx	pelvis_ty	pelvis_tz	hip_flexion_r	hip_adduction_r	hip_rotation_r	knee_angle_r	knee_angle_r_beta	ankle_angle_r	subtalar_angle_r	mtp_angle_r	hip_flexion_l	hip_adduction_l	hip_rotation_l	knee_angle_l	knee_angle_l_beta	ankle_angle_l	subtalar_angle_l	mtp_angle_l	L5_S1_Flex_Ext	L5_S1_Lat_Bending	L5_S1_axial_rotation	L4_L5_Flex_Ext	L4_L5_Lat_Bending	L4_L5_axial_rotation	L3_L4_Flex_Ext	L3_L4_Lat_Bending	L3_L4_axial_rotation	L2_L3_Flex_Ext	L2_L3_Lat_Bending	L2_L3_axial_rotation	L1_L2_Flex_Ext	L1_L2_Lat_Bending	L1_L2_axial_rotation	L1_T12_Flex_Ext	L1_T12_Lat_Bending	L1_T12_axial_rotation	Abs_r3	Abs_r2	Abs_r1	Abs_t1	Abs_t2	neck_flexion	neck_bending	neck_rotation	arm_flex_r	arm_add_r	arm_rot_r	elbow_flex_r	pro_sup_r	wrist_flex_r	wrist_dev_r	arm_flex_l	arm_add_l	arm_rot_l	elbow_flex_l	pro_sup_l	wrist_flex_l	wrist_dev_l
      4.98076923	     -4.69378520	    -16.62407077	     90.01549500	     -0.12729976	      0.76408278	      0.67119600	     25.89209898	     -9.89001305	     -3.75096861	     29.59018026	      0.51644607	     30.70096400	     -6.58771115	      0.00000000	     19.25745809	      6.74512590	    -13.81818911	     13.23049534	      0.23091571	     35.75277791	     16.56287547	      0.00000000	     -0.06443175	      0.76703344	     -3.61647438	     -0.11965620	      1.02015448	     -3.84250403	     -0.10585492	      1.86496511	     -3.84250403	     -0.07363905	      1.86496511	     -3.16441509	     -0.05983132	      1.56413459	     -2.93838544	     -0.03681630	      1.18813480	     -2.71235579	     -0.46022954	      8.67683568	    -20.11374558	      0.00000000	      0.00000000	     27.30725197	     -2.96697792	     37.63822897	    -17.48949093	    -63.70776264	    -53.76160242	     18.43437519	      4.32237260	     -2.91129404	     10.38742190	     12.50581297	    -82.43632667	     34.64391463	     10.88217904	     58.39548825	    -19.82995681	     -4.13337743
      5.00000000	     -4.61932282	    -16.78573945	     89.10614755	     -0.12481940	      0.76380159	      0.67156245	     26.32298706	     -9.26210180	     -2.71295641	     29.59456401	      0.51652258	     30.61653257	     -6.81772568	      0.00000000	     19.65705734	      6.24914927	    -14.56224381	     13.47320107	      0.23515172	     36.19139993	     16.42588640	      0.00000000	     -0.04803646	      0.72136024	     -3.57139738	     -0.08920851	      0.95940912	     -3.79460972	     -0.07891910	      1.75391529	     -3.79460972	     -0.05490087	      1.75391529	     -3.12497271	     -0.04460666	      1.47099780	     -2.90176037	     -0.02744803	      1.11738701	     -2.67854804	     -0.34311963	      8.16017130	    -19.86304083	      0.00000000	      0.00000000	     27.19765941	     -1.75615235	     37.00105742	    -20.28581867	    -64.69805240	    -43.70642668	     17.57426647	      5.54429383	     -2.30224015	      8.72796060	     13.21912734	    -82.78309835	     35.62552081	     10.90016173	     57.83066773	    -19.15685137	     -5.31346410
      5.01923077	     -4.60194497	    -16.91601345	     88.09601154	     -0.12187627	      0.76370187	      0.67160591	     26.64183361	     -8.59856677	     -1.53183865	     29.51302198	      0.51509941	     30.47136134	     -7.14443801	      0.00000000	     19.97463429	      5.74858054	    -15.40987411	     13.71201505	      0.23931981	     36.51082919	     16.31861768	      0.00000000	     -0.02933057	      0.65405654	     -3.53114409	     -0.05446981	      0.86989520	     -3.75184059	     -0.04818720	      1.59027307	     -3.75184059	     -0.03352191	      1.59027307	     -3.08975108	     -0.02723637	      1.33375210	     -2.86905457	     -0.01675949	      1.01313358	     -2.64835807	     -0.20950535	      7.39881839	    -19.63916408	      0.00000000	      0.00000000	     27.11071214	     -0.36720606	     36.15085728	    -21.94858159	    -65.55076677	    -35.01831693	     16.62895827	      6.67820704	     -1.94471071	      7.18901762	     13.98133963	    -83.17283939	     37.53425209	     10.83210130	     57.14496421	    -18.93492122	     -6.85214286
      5.03846154	     -4.32233697	    -17.07133326	     87.57589919	     -0.11948846	      0.76394052	      0.67066069	     26.57603320	     -7.97641994	     -1.30235642	     29.06726982	      0.50731956	     30.28285734	     -6.84462364	      0.00000000	     20.10146977	      5.19547364	    -15.50735303	     13.71245461	      0.23932748	     36.64299414	     16.01562458	      0.00000000	      0.00252775	      0.61649887	     -3.59646452	      0.00469429	      0.81994350	     -3.82124355	      0.00415284	      1.49895536	     -3.82124355	      0.00288897	      1.49895536	     -3.14690646	      0.00234727	      1.25716450	     -2.92212742	      0.00144436	      0.95495675	     -2.69734839	      0.01805548	      6.97395854	    -20.00245673	      0.00000000	      0.00000000	     27.29822234	      1.13287149	     35.25743334	    -22.75380838	    -65.77543842	    -34.37898748	     16.72701238	      7.35086203	     -1.95078291	      7.15498193	     13.67288110	    -83.09088800	     37.96472108	     10.72679010	     57.46018163	    -19.10414718	     -7.33234395
      5.05769231	     -4.54213382	    -17.09486996	     85.92249299	     -0.11455395	      0.76451097	      0.66979970	     26.65572295	     -7.17524515	      0.44463979	     28.72141851	      0.50128332	     29.82745248	     -7.29818384	      0.00000000	     20.10157390	      4.63659726	    -17.02117787	     13.72223322	      0.23949815	     36.69520673	     16.04345835	      0.00000000	      0.03725550	      0.48043948	     -3.39315114	      0.06918719	      0.63898450	     -3.60522308	      0.06120706	      1.16814055	     -3.60522308	      0.04257931	      1.16814055	     -2.96900724	      0.03459546	      0.97971218	     -2.75693530	      0.02128779	      0.74420075	     -2.54486335	      0.26611230	      5.43482745	    -18.87168867	      0.00000000	      0.00000000	     27.29652566	      2.74173574	     33.26150310	    -24.84552811	    -66.72516187	    -24.77152121	     15.49338001	      7.62314737	     -2.56199233	      4.21012238	     36.08395538	    -82.50145949	     93.74762487	      6.20199785	     34.89400288	    -17.83193947	     -9.20524260
      5.07692308	     -4.38336127	    -17.22676750	     84.76559062	     -0.11055643	      0.76528440	      0.66798289	     26.45205993	     -6.39223089	      0.98708830	     28.01039529	      0.48887362	     29.54159797	     -6.70367929	      0.00000000	     20.02773737	      3.92217354	    -17.89099846	     13.53998852	      0.23631738	     36.71429241	     15.90457856	      0.00000000	      0.08821704	      0.40584992	     -3.40701647	      0.16382786	      0.53978040	     -3.61995500	      0.14493177	      0.98678350	     -3.61995500	      0.10082325	      0.98678350	     -2.98113941	      0.08191834	      0.82760916	     -2.76820088	      0.05040722	      0.62866153	     -2.55526235	      0.63012548	      4.59105549	    -18.94880350	      0.00000000	      0.00000000	     27.50475185	      4.53669767	     32.31873138	    -23.99840662	    -67.35588978	    -23.10125402	     15.02426014	      9.43103805	     -3.85542075	      3.04172403	     32.96704195	    -81.49298944	     99.13995066	      3.55313908	     40.50992118	    -18.01584442	     -7.77368217
      5.09615385	     -4.50760765	    -17.01422099	     83.63353003	     -0.10591644	      0.76636227	      0.66668633	     25.97595097	     -5.91039274	      1.62835857	     27.36567341	      0.47762110	     29.41888784	     -6.08052148	      0.00000000	     19.59499619	      3.49078734	    -18.87831954	     13.24896169	      0.23123800	     36.56738364	     15.94985451	      0.00000000	      0.10991916	      0.26162533	     -3.22062384	      0.20413087	      0.34796169	     -3.42191283	      0.18058619	      0.63611583	     -3.42191283	      0.12562661	      0.63611583	     -2.81804586	      0.10207093	      0.53350637	     -2.61675687	      0.06280781	      0.40525764	     -2.41546788	      0.78514156	      2.95955806	    -17.91214362	      0.00000000	      0.00000000	     27.64229993	      6.11811210	     29.66884023	    -25.40622055	    -67.02186894	    -24.74273004	     14.40395934	     10.48035623	     -4.76230427	      1.59372883	     42.78554960	    -80.12638654	    117.30539152	      2.00230460	     54.49458217	    -16.37048535	     -2.77225164
      5.11538462	     -4.44830504	    -16.84804535	     82.53247768	     -0.10174579	      0.76737188	      0.66512794	     25.45005088	     -5.35965026	      1.95171406	     26.59391829	      0.46415144	     29.35859495	     -5.01440922	      0.00000000	     19.11207340	      2.96444634	    -19.67120265	     12.80948340	      0.22356766	     36.40032488	     15.82931747	      0.00000000	      0.13610680	      0.15311352	     -3.13943210	      0.25276393	      0.20364098	     -3.33564660	      0.22360986	      0.37228020	     -3.33564660	      0.15555646	      0.37228020	     -2.74700309	      0.12638877	      0.31222908	     -2.55078858	      0.07777142	      0.23717283	     -2.35457407	      0.97219724	      1.73205070	    -17.46057950	      0.00000000	      0.00000000	     27.74926278	      7.79661931	     27.88553931	    -24.93146559	    -67.18483060	    -26.46502832	     14.01577107	     12.07985127	     -5.81567849	      0.33108207	     44.02284689	    -79.15822571	    123.46411403	      1.38300286	     63.17441341	    -14.79035910	      0.09249035
      5.13461538	     -4.31669003	    -16.67803694	     81.45387129	     -0.09793122	      0.76816406	      0.66345156	     24.88255552	     -4.82180553	      2.08323307	     25.79351963	      0.45018184	     29.31189620	     -3.72844186	      0.00000000	     18.54803916	      2.45001137	    -20.27783444	     12.25359433	      0.21386557	     36.21712305	     15.56527869	      0.00000000	      0.16272722	      0.06449133	     -2.99877436	      0.30220072	      0.08577346	     -3.18619776	      0.26734455	      0.15680421	     -3.18619776	      0.18598094	      0.15680421	     -2.62392756	      0.15110850	      0.13151071	     -2.43650417	      0.09298233	      0.09989707	     -2.24908077	      1.16234427	      0.72953879	    -16.67828335	      0.00000000	      0.00000000	     27.83501606	      9.04259656	     26.09085915	    -25.65002732	    -66.53643967	    -36.82583795	     15.38992267	     18.89019301	     -7.35924800	     -0.11176265	     43.84308089	    -78.28157893	    125.54077636	      1.28388328	     65.33149796	    -14.22626278	      0.97157314
